<svg xmlns="http://www.w3.org/2000/svg" version="1.1" xmlns:xlink="http://www.w3.org/1999/xlink" xmlns:svgjs="http://svgjs.dev/svgjs" width="1500" height="1000" preserveAspectRatio="none" viewBox="0 0 1500 1000"><g mask="url(&quot;#SvgjsMask1062&quot;)" fill="none"><rect width="1500" height="1000" x="0" y="0" fill="url(&quot;#SvgjsLinearGradient1063&quot;)"></rect><path d="M0 0L106.1 0L0 434.72z" fill="rgba(255, 255, 255, .1)"></path><path d="M0 434.72L106.1 0L266.2 0L0 647.95z" fill="rgba(255, 255, 255, .075)"></path><path d="M0 647.95L266.2 0L311.34 0L0 779.6600000000001z" fill="rgba(255, 255, 255, .05)"></path><path d="M0 779.6600000000001L311.34 0L736.28 0L0 822.1100000000001z" fill="rgba(255, 255, 255, .025)"></path><path d="M1500 1000L1037.87 1000L1500 898.89z" fill="rgba(0, 0, 0, .1)"></path><path d="M1500 898.89L1037.87 1000L810.9499999999999 1000L1500 790.47z" fill="rgba(0, 0, 0, .075)"></path><path d="M1500 790.47L810.95 1000L400.88000000000005 1000L1500 388.47z" fill="rgba(0, 0, 0, .05)"></path><path d="M1500 388.47L400.8800000000001 1000L399.0500000000001 1000L1500 158.65000000000003z" fill="rgba(0, 0, 0, .025)"></path></g><defs><mask id="SvgjsMask1062"><rect width="1500" height="1000" fill="#ffffff"></rect></mask><linearGradient x1="8.33%" y1="-12.5%" x2="91.67%" y2="112.5%" gradientUnits="userSpaceOnUse" id="SvgjsLinearGradient1063"><stop stop-color="#0e2a47" offset="0"></stop><stop stop-color="rgba(158, 0, 64, 1)" offset="1"></stop></linearGradient></defs></svg>